# xmcd
#
# Track frame offsets: 
#        183
#        11220
#        21578
#        30928
#        41568
#        51645
#        60590
#        70255
#        79358
#        89173
#        97860
#        107980
#        118795
#        132343
#
# Disc length: 1916 seconds
#
# Revision: 6
# Processed by: cddbd v1.5.2PL0 Copyright (c) Steve Scherf et al.
# Submitted via: ExactAudioCopyFreeDBPlugin 1.0
#
DISCID=c9077a0e
DTITLE=Little Richard - Long Tall Sally - The Blues Collection 12
DYEAR=1994
DGENRE=Blues
TTITLE0=Whole lotta shakin' goin' on
TTITLE1=Money honey
TTITLE2=Good golly Miss Molly
TTITLE3=Tutti frutti
TTITLE4=Lucille
TTITLE5=Rip it up
TTITLE6=She's got it
TTITLE7=Long tall Sally
TTITLE8=Keep a knockin'
TTITLE9=Jenny Jenny
TTITLE10=Send me some lovin'
TTITLE11=Slippin' and slidin'
TTITLE12=The girl cant't help it
TTITLE13=Baby face
EXTD=YEAR: 1994
EXTT0=
EXTT1=
EXTT2=
EXTT3=
EXTT4=
EXTT5=
EXTT6=
EXTT7=
EXTT8=
EXTT9=
EXTT10=
EXTT11=
EXTT12=
EXTT13=
PLAYORDER=
